<svg width="553" height="98" viewBox="0 0 553 98" fill="none" xmlns="http://www.w3.org/2000/svg">
<g clip-path="url(#clip0_2_2)">
<path d="M69.36 69.36C58.1 80.62 39.83 80.62 28.57 69.36C17.31 58.1 17.31 39.83 28.57 28.57C39.83 17.31 58.1 17.31 69.36 28.57L72.75 31.96L52.35 52.36L45.57 45.58L58.76 32.39C51.38 28.02 41.7 29.01 35.35 35.35C27.83 42.87 27.83 55.05 35.35 62.57C42.87 70.09 55.05 70.09 62.57 62.57L110.8 14.34C129.92 -4.78 160.92 -4.78 180.05 14.34C199.18 33.46 199.17 64.46 180.05 83.59C160.93 102.72 129.93 102.71 110.8 83.59L104.63 77.42L111.42 70.63L117.59 76.8C132.96 92.17 157.89 92.17 173.26 76.8C188.63 61.43 188.63 36.5 173.26 21.13C157.89 5.76 132.96 5.76 117.59 21.13L69.36 69.36ZM131.82 35.35C139.34 27.83 151.52 27.83 159.04 35.35C166.56 42.87 166.56 55.05 159.04 62.57C151.52 70.09 139.34 70.09 131.82 62.57L125.65 56.4L118.86 63.19L125.03 69.36C136.29 80.62 154.56 80.62 165.82 69.36C177.08 58.1 177.08 39.83 165.82 28.57C154.56 17.31 136.29 17.31 125.03 28.57L76.8 76.8C61.43 92.17 36.5 92.17 21.13 76.8C5.76003 61.43 5.76003 36.5 21.13 21.13C36.5 5.76 61.43 5.76 76.8 21.13L80.19 24.52L86.98 17.73L83.59 14.34C64.47 -4.78 33.47 -4.78 14.34 14.34C-4.78997 33.46 -4.77997 64.46 14.34 83.59C33.46 102.72 64.46 102.71 83.59 83.59L131.82 35.35Z" fill="#00D1FF"/>
<path d="M258.82 23.59C245.06 23.59 235.81 33.37 235.81 47.92C235.81 62.47 245.31 72.25 259.46 72.25C267.15 72.25 273.15 70.23 278.31 65.9L273.57 59.11C269.62 62.17 264.73 63.91 260.1 63.91C252.43 63.91 247.11 59.36 245.87 51.73L245.81 51.38H280.5C280.59 50.25 280.67 49.05 280.67 47.87C280.61 33.35 271.83 23.59 258.82 23.59ZM270.85 44.22H245.85L245.91 43.87C247.08 36.38 251.72 32.08 258.62 32.08C265.2 32.08 269.64 36.38 270.8 43.87L270.85 44.22Z" fill="white"/>
<path d="M318 47.3399L335.43 71.0399H323.02L311.29 54.9599L299.7 71.0499H287.87L305.3 47.4399L288.17 24.7999H300.58L311.83 40.2499L323.17 24.7999H335.09L318 47.3399Z" fill="white"/>
<path d="M359.77 8.81996C359.77 12.83 356.63 15.87 352.63 15.87C348.62 15.87 345.58 12.83 345.58 8.81996C345.58 4.80996 348.62 1.67996 352.63 1.67996C356.64 1.66996 359.77 4.80996 359.77 8.81996ZM357.75 71.05H347.61V24.8H357.75V71.05Z" fill="white"/>
<path d="M419.26 41.98V71.04H409.12V45.31C409.12 37.54 405.11 33.19 398.35 33.19C391.83 33.19 386.38 37.49 386.38 45.4V71.03H376.24V24.8H386.28V30.45C390 24.99 395.74 23.59 400.47 23.59C411.49 23.59 419.26 31.17 419.26 41.98Z" fill="white"/>
<path d="M449.45 8.81996C449.45 12.83 446.31 15.87 442.31 15.87C438.3 15.87 435.26 12.83 435.26 8.81996C435.26 4.80996 438.3 1.67996 442.31 1.67996C446.31 1.66996 449.45 4.80996 449.45 8.81996ZM447.42 71.05H437.28V24.8H447.42V71.05Z" fill="white"/>
<path d="M492.13 33.9699H475.48V54.0999C475.48 60.3299 478.76 62.7399 482.82 62.7399C485.96 62.7399 489.39 61.3399 492.14 59.5999L496.15 67.6599C492.43 70.1699 487.75 72.2499 481.96 72.2499C471.48 72.2499 465.35 66.5999 465.35 54.2899V10.7999H475.49V24.7999H492.14V33.9699H492.13Z" fill="white"/>
<path d="M507.76 84.6599H518.87L552.05 24.7999H540.95L526.61 51.3499L511.74 24.7999H500.4L520.91 61.5399L507.76 84.6599Z" fill="white"/>
</g>
<defs>
<clipPath id="clip0_2_2">
<rect width="552.05" height="97.93" fill="white"/>
</clipPath>
</defs>
</svg>
